<?xml version="1.0" standalone="no"?>
<!DOCTYPE svg PUBLIC "-//W3C//DTD SVG 20010904//EN"
 "http://www.w3.org/TR/2001/REC-SVG-20010904/DTD/svg10.dtd">
<svg version="1.0" xmlns="http://www.w3.org/2000/svg"
 width="518.000000pt" height="518.000000pt" viewBox="0 0 518.000000 518.000000"
 preserveAspectRatio="xMidYMid meet">
<metadata>
Created by potrace 1.14, written by Peter Selinger 2001-2017
</metadata>
<g transform="translate(0.000000,518.000000) scale(0.100000,-0.100000)"
fill="#000000" stroke="none">
<path d="M1938 4593 c-22 -6 -28 -25 -14 -50 9 -16 16 -19 34 -12 12 5 25 15
28 24 6 15 -12 46 -25 44 -3 -1 -13 -3 -23 -6z"/>
<path d="M2431 4554 c-41 -17 -59 -35 -75 -76 -11 -28 -14 -81 -6 -105 4 -14
7 -28 8 -45 3 -23 47 -66 77 -74 32 -8 93 3 122 22 23 14 60 74 46 74 -4 0 -2
5 3 10 15 15 6 99 -13 136 -29 57 -103 83 -162 58z m79 -44 c25 -14 39 -59 35
-121 -2 -40 -8 -57 -25 -71 -40 -33 -92 -18 -106 29 -32 115 20 204 96 163z"/>
<path d="M2974 4495 c-55 -23 -84 -80 -84 -166 0 -42 5 -53 35 -84 20 -19 45
-36 55 -36 11 -1 25 -3 30 -4 6 -1 15 -3 20 -4 16 -2 12 -27 -8 -50 -19 -24
-63 -30 -123 -17 -29 6 -37 4 -42 -8 -4 -11 4 -21 26 -33 107 -55 190 -24 218
81 11 39 13 51 24 97 2 11 6 28 9 37 8 25 18 84 20 112 1 20 -8 29 -41 47 -66
34 -105 42 -139 28z m95 -64 c21 -21 21 -43 -1 -111 -15 -51 -36 -70 -74 -70
-59 0 -79 69 -42 145 26 52 83 70 117 36z"/>
<path d="M1965 4466 c-16 -11 -14 -21 26 -132 23 -65 50 -127 59 -137 16 -17
17 -17 40 1 l23 18 -35 80 c-19 43 -43 100 -52 126 -19 51 -35 63 -61 44z"/>
<path d="M1529 4424 c-11 -13 -9 -23 14 -64 34 -61 34 -71 -3 -92 -16 -9 -39
-32 -50 -50 -47 -74 14 -213 104 -236 44 -12 64 -4 110 42 23 23 44 40 47 39
4 -1 14 6 24 17 17 19 15 22 -32 87 -71 97 -153 221 -153 231 0 9 -33 42 -42
42 -3 0 -12 -7 -19 -16z m89 -209 c33 -28 72 -99 72 -131 0 -19 -35 -62 -53
-64 -22 -2 -69 36 -92 75 -31 52 -29 100 7 127 30 23 31 23 66 -7z"/>
<path d="M3454 4263 c-15 -27 -44 -79 -66 -116 -32 -55 -37 -71 -28 -83 22
-25 45 -15 76 33 66 107 97 127 158 103 21 -8 27 -6 36 10 8 15 6 22 -12 34
-12 9 -34 16 -49 16 -17 0 -32 9 -43 25 -24 36 -42 31 -72 -22z"/>
<path d="M3870 4010 c-12 -8 -7 -18 32 -53 51 -46 60 -63 46 -89 -12 -24 -28
-23 -58 5 -65 58 -122 68 -165 27 -52 -49 -40 -109 31 -154 25 -16 50 -39 55
-52 13 -36 32 -29 92 34 115 120 124 136 103 185 -18 42 -44 70 -83 91 -37 19
-34 18 -53 6z m-31 -146 c15 -9 33 -25 40 -36 11 -17 9 -24 -10 -44 -32 -34
-72 -32 -99 6 -23 32 -17 59 18 79 22 13 20 14 51 -5z"/>
<path d="M1157 3933 c-14 -13 -5 -26 63 -95 54 -55 70 -77 70 -99 0 -29 -26
-61 -53 -65 -8 -1 -50 25 -93 57 -80 61 -110 71 -121 42 -6 -16 13 -38 86 -93
109 -83 171 -79 211 16 11 24 28 49 39 56 44 27 32 42 -103 139 -67 48 -86 56
-99 42z"/>
<path d="M4180 3541 c-52 -17 -156 -64 -172 -79 -13 -11 -15 -19 -7 -28 10
-12 29 -9 89 13 24 10 43 14 85 20 32 4 44 1 58 -15 31 -34 17 -53 -76 -103
-106 -56 -111 -60 -94 -83 13 -18 16 -18 68 -1 30 10 60 22 67 28 6 5 12 7 12
4 0 -3 14 -2 31 3 37 11 64 0 72 -29 6 -23 -24 -53 -104 -104 -64 -40 -76 -54
-60 -70 13 -13 137 44 189 88 43 36 44 81 1 130 -23 26 -31 46 -33 79 -2 39
-15 66 -46 96 -3 3 -11 17 -17 33 -13 28 -21 30 -63 18z"/>
<path d="M2589 3530 l-47 -5 0 -645 c0 -355 -1 -656 -1 -669 -1 -18 -5 -22
-18 -16 -111 44 -250 36 -370 -21 -117 -56 -192 -157 -193 -261 0 -68 28 -129
80 -177 132 -119 357 -128 523 -22 62 40 91 72 124 137 l24 49 1 635 c0 349 1
635 3 635 1 0 19 -7 39 -15 20 -8 38 -15 41 -15 19 2 101 -45 139 -80 88 -81
119 -162 119 -309 l-1 -93 34 38 c81 91 104 205 70 352 -18 78 -111 189 -201
238 -60 32 -120 77 -158 119 -34 36 -87 110 -87 122 0 9 -52 10 -121 3z"/>
<path d="M702 3408 c-47 -13 -61 -48 -33 -84 30 -38 296 -244 315 -244 27 0
18 31 -23 76 -38 41 -39 44 -29 81 23 84 42 103 102 103 57 0 91 47 40 57 -83
16 -327 23 -372 11z m200 -64 c12 -8 9 -25 -12 -72 -17 -37 -22 -42 -38 -33
-29 15 -122 102 -122 113 0 10 154 3 172 -8z"/>
<path d="M722 2785 c-117 -51 -132 -223 -27 -293 61 -39 163 -33 213 14 27 25
52 85 52 122 0 124 -125 206 -238 157z"/>
<path d="M4276 2788 c-57 -21 -106 -94 -106 -160 0 -46 34 -109 74 -136 41
-28 108 -35 154 -16 17 7 32 11 32 8 0 -9 37 33 57 66 28 47 26 121 -5 172
-40 64 -131 93 -206 66z"/>
<path d="M4133 2140 c-32 -13 -62 -68 -61 -109 1 -27 -5 -40 -29 -60 -37 -32
-49 -54 -57 -105 -4 -22 -11 -45 -17 -53 -14 -17 -3 -63 15 -63 8 0 16 -3 18
-7 5 -13 177 -93 198 -93 28 0 26 36 -2 53 -151 92 -169 108 -161 157 8 51 39
52 141 4 42 -20 91 -37 107 -38 26 -1 30 3 30 24 0 20 -16 34 -85 77 -47 29
-89 54 -94 56 -15 5 -11 68 5 78 22 13 58 10 121 -11 66 -22 126 -33 138 -25
30 19 -64 75 -183 110 -57 17 -54 17 -84 5z"/>
<path d="M1128 2115 c-2 -1 -75 -6 -163 -9 -88 -4 -169 -9 -180 -11 -11 -2
-30 -4 -42 -4 -23 -1 -29 -16 -15 -38 4 -6 34 -15 67 -18 33 -4 64 -9 68 -12
14 -8 57 -105 57 -127 0 -11 -18 -41 -40 -67 -41 -49 -46 -64 -31 -88 8 -12
21 -7 73 29 35 24 95 68 133 99 189 150 220 216 112 241 -20 4 -37 6 -39 5z
m22 -75 c0 -8 -76 -73 -94 -79 -6 -2 -22 -12 -35 -22 -40 -32 -47 -27 -80 64
-10 24 -8 29 12 37 26 11 197 11 197 0z"/>
<path d="M1183 1633 c-112 -91 -130 -112 -138 -168 -3 -25 37 -84 74 -108 23
-15 41 -34 41 -41 0 -8 7 -22 16 -30 12 -13 20 -14 37 -4 12 6 24 14 27 17 3
3 44 41 92 84 84 76 96 98 62 111 -7 3 -51 -19 -95 -49 -99 -66 -133 -73 -176
-33 -35 32 -19 72 50 125 77 58 107 90 107 110 0 17 -17 33 -35 33 -3 0 -30
-21 -62 -47z"/>
<path d="M3735 1543 c-30 -16 -41 -27 -71 -69 -29 -41 -25 -83 8 -84 4 0 21
20 38 45 38 55 60 68 94 55 32 -12 33 -25 2 -64 -54 -72 -68 -125 -44 -169 25
-48 90 -70 136 -45 13 7 38 36 54 64 18 33 38 54 52 58 47 12 40 36 -26 99
-138 130 -176 146 -243 110z m172 -145 c30 -28 30 -74 1 -105 -26 -28 -59 -30
-83 -3 -26 28 -22 67 11 101 33 35 41 36 71 7z"/>
<path d="M1852 1319 c-9 -12 -30 -37 -45 -55 l-29 -34 -45 31 c-87 60 -188 25
-245 -85 -28 -55 -32 -90 -13 -129 16 -35 78 -77 112 -77 11 0 29 -12 42 -26
12 -14 27 -24 34 -21 12 3 48 55 102 148 17 28 35 56 40 62 10 13 97 143 109
164 10 18 -4 43 -25 43 -11 0 -27 -10 -37 -21z m-138 -108 c13 -13 17 -27 12
-44 -10 -42 -71 -121 -106 -139 -29 -15 -36 -15 -61 -2 -49 25 -50 75 -3 143
47 70 112 87 158 42z"/>
<path d="M3416 1246 c-18 -20 -40 -36 -48 -36 -47 0 -59 -24 -34 -70 52 -97
111 -198 123 -212 17 -19 39 -14 54 13 7 14 1 35 -27 91 -20 40 -41 88 -45
107 -7 31 -4 38 27 69 39 39 41 65 6 70 -16 3 -33 -7 -56 -32z"/>
<path d="M2099 1216 c-24 -18 -17 -49 14 -60 31 -11 45 -2 52 32 6 32 -37 51
-66 28z"/>
<path d="M2052 1087 c-6 -7 -31 -74 -57 -151 -43 -129 -45 -139 -30 -156 15
-16 49 -19 62 -6 3 2 9 24 15 48 5 24 12 52 14 63 3 11 7 31 10 44 3 13 9 32
15 43 5 10 7 18 3 18 -3 0 -2 6 3 13 15 18 23 60 15 73 -12 17 -40 24 -50 11z"/>
<path d="M2997 1069 c-82 -7 -108 -20 -131 -69 -15 -31 -14 -91 2 -147 13 -43
69 -102 100 -104 40 -3 79 -1 110 6 30 7 32 6 32 -19 0 -15 -7 -40 -15 -56
-15 -28 -35 -38 -117 -55 -34 -7 -36 -32 -4 -45 48 -18 132 8 176 55 21 23 25
36 25 93 0 37 -5 85 -12 107 -7 22 -19 72 -28 110 -20 87 -33 122 -48 127 -7
2 -47 1 -90 -3z m57 -96 c6 -28 13 -59 20 -99 6 -32 -23 -84 -48 -86 -11 0
-28 -2 -36 -2 -41 -3 -80 78 -73 150 4 38 38 88 54 79 4 -3 10 -1 14 5 11 18
63 -17 69 -47z"/>
<path d="M2404 1020 c-33 -13 -73 -71 -80 -116 -25 -145 21 -218 137 -219 103
0 153 60 154 185 0 82 -14 113 -67 144 -28 17 -109 20 -144 6z m122 -61 c19
-21 26 -121 11 -159 -14 -35 -51 -67 -73 -65 -64 5 -83 33 -79 117 2 61 33
124 63 130 28 6 60 -3 78 -23z"/>
</g>
</svg>
